<svg xmlns="http://www.w3.org/2000/svg" width="38.1" height="38.07" viewBox="0 0 38.1 38.07">
  <g id="deadline" transform="translate(-2.999 -1)">
    <g id="Group_485" data-name="Group 485" transform="translate(2.999 1)">
      <path id="Path_12162" data-name="Path 12162" d="M29.39,37.266a17.352,17.352,0,0,1-7.355,1.614A17.6,17.6,0,0,1,9.4,9.118v2.535a.761.761,0,1,0,1.523,0v-4.3a.761.761,0,0,0-.761-.761h-4.3a.761.761,0,1,0,0,1.523h2.4A19.119,19.119,0,0,0,22.034,40.4a18.867,18.867,0,0,0,7.995-1.759.761.761,0,1,0-.64-1.378Z" transform="translate(-2.999 -2.334)" fill="#fff"/>
      <path id="Path_12163" data-name="Path 12163" d="M25.263,1a18.875,18.875,0,0,0-8.314,1.9.77.77,0,0,0,.7,1.371,17.306,17.306,0,0,1,7.614-1.751A17.512,17.512,0,0,1,36.44,33.511a.772.772,0,1,0,1.005,1.173A19.035,19.035,0,0,0,25.263,1Z" transform="translate(-6.227 -1)" fill="#fff"/>
      <path id="Path_12164" data-name="Path 12164" d="M27,22.9a.761.761,0,0,0,.761.761h6.091a.761.761,0,0,0,0-1.523h-5.33V13.761a.761.761,0,0,0-1.523,0Z" transform="translate(-8.726 -3.863)" fill="#fff"/>
      <path id="Path_12165" data-name="Path 12165" d="M27.761,8.807a.761.761,0,0,0,.761-.761V5.761a.761.761,0,0,0-1.523,0V8.046A.761.761,0,0,0,27.761,8.807Z" transform="translate(-8.726 -1.954)" fill="#fff"/>
      <path id="Path_12166" data-name="Path 12166" d="M27,45.046a.761.761,0,1,0,1.523,0V42.761a.761.761,0,0,0-1.523,0Z" transform="translate(-8.726 -10.783)" fill="#fff"/>
      <path id="Path_12167" data-name="Path 12167" d="M47.046,26.523a.761.761,0,1,0,0-1.523H44.761a.761.761,0,1,0,0,1.523Z" transform="translate(-12.782 -6.727)" fill="#fff"/>
      <path id="Path_12168" data-name="Path 12168" d="M7.761,25a.761.761,0,1,0,0,1.523h2.284a.761.761,0,1,0,0-1.523Z" transform="translate(-3.953 -6.727)" fill="#fff"/>
    </g>
  </g>
</svg>
