<svg xmlns="http://www.w3.org/2000/svg" width="36.925" height="40.105" viewBox="0 0 36.925 40.105">
  <g id="Group_687" data-name="Group 687" transform="translate(19248.117 -15790.96)">
    <path id="Path_12137" data-name="Path 12137" d="M38.425,17.865a.8.8,0,0,0-.8-.8,14.449,14.449,0,0,0-14.449,14.1l-2.408,2.408V21.878a10.435,10.435,0,1,0-1.605,0V33.59l-2.408-2.408A14.449,14.449,0,0,0,2.3,17.062a.8.8,0,0,0-.8.8A14.449,14.449,0,0,0,15.6,32.313l3.564,3.556v4.471a.8.8,0,1,0,1.605,0V35.853l3.564-3.54a14.449,14.449,0,0,0,14.1-14.449Zm-1.605.8A12.843,12.843,0,0,1,24.8,30.708,12.843,12.843,0,0,1,36.8,18.667ZM11.133,11.443a8.83,8.83,0,1,1,8.83,8.83,8.83,8.83,0,0,1-8.83-8.83ZM3.105,18.667A12.843,12.843,0,0,1,15.122,30.708,12.843,12.843,0,0,1,3.13,18.667Z" transform="translate(-19249.617 15789.922)" fill="#fff"/>
    <path id="Path_12138" data-name="Path 12138" d="M22.2,20.147a5.619,5.619,0,0,1-4.174-2.818.809.809,0,1,0-1.4.8A7.224,7.224,0,0,0,22,21.761h.1a.8.8,0,0,0,.1-1.605Z" transform="translate(-19252.58 15786.788)" fill="#fff"/>
    <path id="Path_12139" data-name="Path 12139" d="M25.227,6.666a5.619,5.619,0,0,1,4.142,2.761.8.8,0,1,0,1.389-.8,7.224,7.224,0,0,0-5.322-3.556.809.809,0,1,0-.209,1.605Z" transform="translate(-19254.158 15789.128)" fill="#fff"/>
  </g>
</svg>
