<svg xmlns="http://www.w3.org/2000/svg" width="25.998" height="26.001" viewBox="0 0 25.998 26.001">
  <path id="home" d="M25.8,11.308l0,0L15.191.7a2.393,2.393,0,0,0-3.385,0L1.206,11.3l-.011.011A2.393,2.393,0,0,0,2.788,15.39c.025,0,.049,0,.074,0h.423v7.8a2.8,2.8,0,0,0,2.8,2.8h4.149A.762.762,0,0,0,11,25.238V19.119a1.28,1.28,0,0,1,1.278-1.278h2.447A1.279,1.279,0,0,1,16,19.119v6.119a.762.762,0,0,0,.762.762h4.149a2.8,2.8,0,0,0,2.8-2.8v-7.8h.392A2.394,2.394,0,0,0,25.8,11.308Zm-1.079,2.307a.865.865,0,0,1-.615.255H22.952a.762.762,0,0,0-.762.762V23.2a1.279,1.279,0,0,1-1.278,1.278H17.524V19.119a2.8,2.8,0,0,0-2.8-2.8H12.275a2.8,2.8,0,0,0-2.8,2.8v5.358H6.086A1.28,1.28,0,0,1,4.808,23.2V14.632a.762.762,0,0,0-.762-.762H2.912l-.036,0a.869.869,0,0,1-.6-1.484h0L12.884,1.778a.87.87,0,0,1,1.23,0l10.6,10.6,0,0a.872.872,0,0,1,0,1.229Zm0,0" transform="translate(-0.5 0.001)" fill="#39399b"/>
</svg>
