<svg xmlns="http://www.w3.org/2000/svg" width="202.851" height="54.307" viewBox="0 0 202.851 54.307">
  <g id="Group_557" data-name="Group 557" transform="translate(-313 -706)">
    <g id="Group_554" data-name="Group 554" transform="translate(-236.859 457.49)">
      <path id="Path_12215" data-name="Path 12215" d="M557,248.574a5.918,5.918,0,0,0-.825-.064,6.678,6.678,0,0,0,0,13.337,6.074,6.074,0,0,0,.825-.063Z" fill="#b63710"/>
      <path id="Path_12216" data-name="Path 12216" d="M556.528,261.847h175.7a20.486,20.486,0,0,1,20.485,20.485h0a20.485,20.485,0,0,1-20.485,20.485h-175.7a6.669,6.669,0,0,1-6.669-6.669V255.179S550.426,261.847,556.528,261.847Z" fill="#e44e20"/>
    </g>
  </g>
</svg>
