<?xml version="1.0" encoding="utf-8"?>
<!-- Generator: Adobe Illustrator 24.2.3, SVG Export Plug-In . SVG Version: 6.00 Build 0)  -->
<svg version="1.1" id="Layer_1" xmlns="http://www.w3.org/2000/svg" xmlns:xlink="http://www.w3.org/1999/xlink" x="0px" y="0px"
	 viewBox="0 0 202.9 54.3" style="enable-background:new 0 0 202.9 54.3;" xml:space="preserve">
<style type="text/css">
	.st0{fill:#2D2D7A;}
	.st1{fill:#39399B;}
</style>
<g id="Group_554" transform="translate(-236.859 457.49)">
	<path id="Path_12215" class="st0" d="M244-457.4c-0.3,0-0.5-0.1-0.8-0.1c-3.7,0.2-6.5,3.3-6.3,7c0.2,3.4,2.9,6.1,6.3,6.3
		c0.3,0,0.6,0,0.8-0.1V-457.4z"/>
	<path id="Path_12216" class="st1" d="M243.5-444.2h175.7c11.3,0,20.5,9.2,20.5,20.5l0,0c0,11.3-9.2,20.5-20.5,20.5H243.5
		c-3.7,0-6.7-3-6.7-6.7l0,0v-41C236.9-450.8,237.4-444.2,243.5-444.2z"/>
</g>
</svg>
