<svg xmlns="http://www.w3.org/2000/svg" width="30.473" height="30.473" viewBox="0 0 30.473 30.473">
  <g id="manufacturer" transform="translate(-1 -1)">
    <path id="Path_12188" data-name="Path 12188" d="M30.5,1.122,21.722,7.7V1.609a.609.609,0,0,0-.975-.488L11.97,7.7V1.609A.609.609,0,0,0,11,1.122L1.244,8.435A.609.609,0,0,0,1,8.923V29.645a1.828,1.828,0,0,0,1.828,1.828H29.645a1.828,1.828,0,0,0,1.828-1.828V1.609a.609.609,0,0,0-.975-.488Zm-.244,28.523a.609.609,0,0,1-.609.609H2.828a.609.609,0,0,1-.609-.609V9.228l8.532-6.4V8.923a.609.609,0,0,0,.975.488L20.5,2.828V8.923a.609.609,0,0,0,.975.488l8.776-6.582Z" fill="#fff"/>
    <path id="Path_12189" data-name="Path 12189" d="M9,19.609V33.627a.609.609,0,0,0,.609.609h19.5a.609.609,0,0,0,.609-.609V19.609A.609.609,0,0,0,29.112,19H9.609A.609.609,0,0,0,9,19.609Zm14.627.609H28.5v12.8H23.627Zm-7.314,0h6.095v12.8H16.314Zm-6.095,0h4.876v12.8H10.219Z" transform="translate(-3.124 -7.03)" fill="#fff"/>
  </g>
</svg>
