<svg xmlns="http://www.w3.org/2000/svg" width="37.782" height="39.803" viewBox="0 0 37.782 39.803">
  <path id="Path_12151" data-name="Path 12151" d="M22.993,40.8H17.771a2.563,2.563,0,0,1-2.555-2.523V35.628l-4.959-2.866-2.309,1.3a2.555,2.555,0,0,1-3.463-.947L1.842,28.591a2.563,2.563,0,0,1,.907-3.479l2.277-1.345V18.035L2.75,16.69a2.563,2.563,0,0,1-.907-3.479L4.453,8.69a2.555,2.555,0,0,1,3.463-.947l2.309,1.3,4.959-2.866V3.523A2.563,2.563,0,0,1,17.771,1h5.222a2.563,2.563,0,0,1,2.555,2.523V6.174L30.556,9.04l2.309-1.3a2.563,2.563,0,0,1,3.471.947l2.611,4.522a2.571,2.571,0,0,1-.915,3.479l-2.3,1.345v5.732l2.277,1.345a2.571,2.571,0,0,1,.915,3.479l-2.611,4.522a2.563,2.563,0,0,1-3.471.947l-2.285-1.3L25.6,35.628v2.651A2.563,2.563,0,0,1,22.993,40.8Zm-12.339-9.64,5.739,3.312a.8.8,0,0,1,.4.685l.04,3.1a.963.963,0,0,0,.939.955h5.222a.971.971,0,0,0,.963-.955v-3.1a.8.8,0,0,1,.4-.685L30.1,31.162a.8.8,0,0,1,.8,0l2.7,1.52a.971.971,0,0,0,1.313-.358L37.521,27.8a.971.971,0,0,0-.326-1.329l-2.659-1.592a.8.8,0,0,1-.39-.685V17.582a.8.8,0,0,1,.39-.661L37.2,15.329a.971.971,0,0,0,.35-1.313L34.934,9.486a.971.971,0,0,0-1.313-.358l-2.7,1.52a.8.8,0,0,1-.8,0l-5.739-3.28a.8.8,0,0,1-.4-.685v-3.1a.971.971,0,0,0-1-1H17.771a.963.963,0,0,0-.963.955l-.04,3.1a.8.8,0,0,1-.4.685L10.655,10.64a.8.8,0,0,1-.8,0L7.152,9.12a.963.963,0,0,0-1.306.358L3.22,14.007a.971.971,0,0,0,.342,1.321l2.667,1.592a.8.8,0,0,1,.39.685v6.639a.8.8,0,0,1-.39.685L3.562,26.473a.971.971,0,0,0-.342,1.313l2.611,4.522a.963.963,0,0,0,1.306.358l2.722-1.512a.8.8,0,0,1,.8.008Zm9.728-3.1A7.164,7.164,0,1,1,27.547,20.9a7.164,7.164,0,0,1-7.164,7.164Zm0-12.737A5.572,5.572,0,1,0,25.955,20.9a5.572,5.572,0,0,0-5.572-5.572Z" transform="translate(-1.501 -1)" fill="#fff"/>
</svg>
