<svg xmlns="http://www.w3.org/2000/svg" width="26.982" height="37.481" viewBox="0 0 26.982 37.481">
  <g id="task-list" transform="translate(-9 -0.992)">
    <g id="Group_484" data-name="Group 484" transform="translate(9 0.992)">
      <path id="Path_12153" data-name="Path 12153" d="M34.108,6.245H30.736V5.87A1.874,1.874,0,0,0,28.862,4h-2.7a3.512,3.512,0,0,0-3.673-3,3.512,3.512,0,0,0-3.673,3h-2.7A1.874,1.874,0,0,0,14.247,5.87v.375H10.874A1.874,1.874,0,0,0,9,8.118V36.6a1.874,1.874,0,0,0,1.874,1.874H34.108A1.874,1.874,0,0,0,35.982,36.6V8.118a1.874,1.874,0,0,0-1.874-1.874ZM22.491,2.5A2.01,2.01,0,0,1,24.623,4H20.359A2.01,2.01,0,0,1,22.491,2.5ZM15.746,5.87A.375.375,0,0,1,16.12,5.5H28.862a.375.375,0,0,1,.375.375V8.118a.375.375,0,0,1-.375.375H16.12a.375.375,0,0,1-.375-.375ZM34.483,36.6a.375.375,0,0,1-.375.375H10.874A.375.375,0,0,1,10.5,36.6V8.118a.375.375,0,0,1,.375-.375h3.373v.375A1.874,1.874,0,0,0,16.12,9.992H28.862a1.874,1.874,0,0,0,1.874-1.874V7.744h3.373a.375.375,0,0,1,.375.375Z" transform="translate(-9 -0.992)" fill="#fff"/>
      <path id="Path_12154" data-name="Path 12154" d="M17.249,21.5A2.249,2.249,0,1,0,15,19.249,2.249,2.249,0,0,0,17.249,21.5Zm0-3a.75.75,0,1,1-.75.749A.75.75,0,0,1,17.249,18.5Z" transform="translate(-10.503 -5.002)" fill="#fff"/>
      <path id="Path_12155" data-name="Path 12155" d="M33.992,19H22.75a.75.75,0,1,0,0,1.5H33.992a.75.75,0,1,0,0-1.5Z" transform="translate(-12.256 -5.503)" fill="#fff"/>
      <path id="Path_12156" data-name="Path 12156" d="M32.239,26H15.75a.75.75,0,1,0,0,1.5H32.239a.75.75,0,1,0,0-1.5Z" transform="translate(-10.503 -7.257)" fill="#fff"/>
      <path id="Path_12157" data-name="Path 12157" d="M19.5,36.249A2.249,2.249,0,1,0,17.249,38.5,2.249,2.249,0,0,0,19.5,36.249Zm-3,0a.75.75,0,1,1,.75.75A.75.75,0,0,1,16.5,36.249Z" transform="translate(-10.503 -9.261)" fill="#fff"/>
      <path id="Path_12158" data-name="Path 12158" d="M33.992,36H22.75a.75.75,0,1,0,0,1.5H33.992a.75.75,0,1,0,0-1.5Z" transform="translate(-12.256 -9.762)" fill="#fff"/>
      <path id="Path_12159" data-name="Path 12159" d="M32.239,43H15.75a.75.75,0,1,0,0,1.5H32.239a.75.75,0,1,0,0-1.5Z" transform="translate(-10.503 -11.515)" fill="#fff"/>
    </g>
  </g>
</svg>
